<mxfile host="app.diagrams.net" modified="2021-01-14T12:00:56.658Z" agent="5.0 (Macintosh; Intel Mac OS X 10_15_7) AppleWebKit/537.36 (KHTML, like Gecko) Chrome/87.0.4280.141 Safari/537.36" etag="wFogL3AL40vM8hwdRhQx" version="14.2.2" type="github">
  <diagram id="wxmiwMUPUt9j25tLii7g" name="Page-1">
    <mxGraphModel dx="946" dy="542" grid="1" gridSize="10" guides="1" tooltips="1" connect="1" arrows="1" fold="1" page="1" pageScale="1" pageWidth="827" pageHeight="1169" math="0" shadow="0">
      <root>
        <mxCell id="0" />
        <mxCell id="1" parent="0" />
        <mxCell id="gYfjJqKhfVe2xckBAwUi-4" style="edgeStyle=orthogonalEdgeStyle;rounded=0;orthogonalLoop=1;jettySize=auto;html=1;entryX=0.5;entryY=1;entryDx=0;entryDy=0;" parent="1" target="gYfjJqKhfVe2xckBAwUi-2" edge="1">
          <mxGeometry relative="1" as="geometry">
            <Array as="points">
              <mxPoint x="185" y="270" />
              <mxPoint x="465" y="270" />
            </Array>
            <mxPoint x="299.2944763917983" y="270" as="sourcePoint" />
          </mxGeometry>
        </mxCell>
        <mxCell id="gYfjJqKhfVe2xckBAwUi-1" value="" style="rounded=0;whiteSpace=wrap;html=1;" parent="1" vertex="1">
          <mxGeometry x="130" y="200" width="110" height="60" as="geometry" />
        </mxCell>
        <mxCell id="gYfjJqKhfVe2xckBAwUi-3" style="edgeStyle=orthogonalEdgeStyle;rounded=0;orthogonalLoop=1;jettySize=auto;html=1;entryX=1;entryY=0.5;entryDx=0;entryDy=0;" parent="1" source="gYfjJqKhfVe2xckBAwUi-2" target="gYfjJqKhfVe2xckBAwUi-1" edge="1">
          <mxGeometry relative="1" as="geometry" />
        </mxCell>
        <mxCell id="gYfjJqKhfVe2xckBAwUi-2" value="" style="rounded=1;whiteSpace=wrap;html=1;" parent="1" vertex="1">
          <mxGeometry x="390" y="20" width="90" height="60" as="geometry" />
        </mxCell>
        <mxCell id="u6mAK0_07_4co94hhjSd-3" style="edgeStyle=orthogonalEdgeStyle;rounded=0;orthogonalLoop=1;jettySize=auto;html=1;" parent="1" edge="1">
          <mxGeometry relative="1" as="geometry">
            <mxPoint x="300" y="300" as="targetPoint" />
            <mxPoint x="320" y="280.35276180410085" as="sourcePoint" />
          </mxGeometry>
        </mxCell>
      </root>
    </mxGraphModel>
  </diagram>
</mxfile>
